# xmcd CD database file generated by Grip 3.0.5
# 
# Track frame offsets:
#       150
#       6804
#       74438
#       117257
#       156509
#       198615
# 
# Disc length: 3901 seconds
# 
# Revision: 1
# Processed by: cddbd v1.4PL0 Copyright (c) Steve Scherf et al.
# Submitted via: Grip 3.0.5
# 
DISCID=520f3b06
DTITLE=The Dead - OCRS: Atlanta, GA 7/31/03 [CD2]
DYEAR=2003
DGENRE=Blues
TTITLE0=Teddy Bear Tease
TTITLE1=Uncle John's Band
TTITLE2=Reuben and Cerise
TTITLE3=Scarlet Begonias
TTITLE4=Fire on the Mountain
TTITLE5=Drums and Space
EXTD=YEAR: 2003
EXTT0=
EXTT1=
EXTT2=
EXTT3=
EXTT4=
EXTT5=
PLAYORDER=
